<svg xmlns="http://www.w3.org/2000/svg" width="1521" height="1453" viewBox="0 0 1521 1453"><defs><linearGradient id="grad0" x1="49.99999999999999%" y1="0%" x2="50.00000000000001%" y2="100%"><stop offset="0%" stop-color="rgb(26,92,88)" stop-opacity="1"/><stop offset="100%" stop-color="rgb(15,66,63)" stop-opacity="1"/></linearGradient><clipPath id="clip1"><rect x="24" y="135.60000610351562" width="17" height="17"/></clipPath><clipPath id="clip2"><rect x="24" y="174.60000610351562" width="17" height="17"/></clipPath><clipPath id="clip3"><rect x="24" y="213.60000610351562" width="17" height="17"/></clipPath><clipPath id="clip4"><rect x="226" y="215.10000610351562" width="14" height="14"/></clipPath><filter id="shadow5" x="-50%" y="-50%" width="200%" height="200%"><feDropShadow dx="0" dy="0" stdDeviation="0" flood-color="rgb(255,255,255)" flood-opacity="0.14"/></filter><clipPath id="clip6"><rect x="24" y="252.60000610351562" width="17" height="17"/></clipPath><clipPath id="clip7"><rect x="24" y="291.6000061035156" width="17" height="17"/></clipPath><clipPath id="clip8"><rect x="77.80000305175781" y="1390.5999755859375" width="84.6500015258789" height="15.199999809265137"/></clipPath><clipPath id="clip9"><rect x="77.80000305175781" y="1405.800048828125" width="84.6500015258789" height="12.800000190734863"/></clipPath><clipPath id="clip10"><rect x="303" y="24" width="14" height="14"/></clipPath><filter id="shadow11" x="-50%" y="-50%" width="200%" height="200%"><feDropShadow dx="0" dy="1" stdDeviation="1" flood-color="rgb(15,23,34)" flood-opacity="0.05"/></filter><clipPath id="clip12"><rect x="1419.800048828125" y="23" width="16" height="16"/></clipPath><clipPath id="clip13"><rect x="697.4000244140625" y="163.5" width="15" height="15"/></clipPath><filter id="shadow14" x="-50%" y="-50%" width="200%" height="200%"><feDropShadow dx="0" dy="1" stdDeviation="1" flood-color="rgb(15,23,34)" flood-opacity="0.05"/></filter><filter id="shadow15" x="-50%" y="-50%" width="200%" height="200%"><feDropShadow dx="0" dy="12" stdDeviation="16" flood-color="rgb(15,23,34)" flood-opacity="0.1"/></filter><clipPath id="clip16"><rect x="405.20001220703125" y="249.5" width="17" height="17"/></clipPath><clipPath id="clip17"><rect x="405.20001220703125" y="389.5" width="17" height="17"/></clipPath><clipPath id="clip18"><rect x="405.20001220703125" y="570.2999877929688" width="17" height="17"/></clipPath><clipPath id="clip19"><rect x="405.20001220703125" y="710.2999877929688" width="17" height="17"/></clipPath><clipPath id="clip20"><rect x="405.20001220703125" y="809.5" width="17" height="17"/></clipPath><clipPath id="clip21"><rect x="405.20001220703125" y="990.2999877929688" width="17" height="17"/></clipPath><clipPath id="clip22"><rect x="405.20001220703125" y="1089.5" width="17" height="17"/></clipPath><clipPath id="clip23"><rect x="405.20001220703125" y="1229.5" width="17" height="17"/></clipPath></defs><path d="M 0 0 L 1520.800048828125 0 L 1520.800048828125 1452.4000244140625 L 0 1452.4000244140625 L 0 0 Z" fill="rgb(245,240,232)" fill-opacity="1"/><path d="M 0 0 L 264 0 L 264 1452.4000244140625 L 0 1452.4000244140625 L 0 0 Z" fill="url(#grad0)"/><path d="M 32 22 L 48 22 A 12 12 0 0 1 60 34 L 60 50 A 12 12 0 0 1 48 62 L 32 62 A 12 12 0 0 1 20 50 L 20 34 A 12 12 0 0 1 32 22 Z" fill="rgb(255,255,255)" fill-opacity="0.14" stroke="rgb(255,255,255)" stroke-width="0.8" stroke-opacity="0.18"/><rect x="20" y="22" width="0.8" height="40" fill="rgb(255,255,255)" fill-opacity="0.18"/><text x="30.912500381469727" y="47.88800048828125" font-size="15" font-weight="800" font-family="Inter, ui-sans-serif, system-ui, sans-serif" fill="rgb(245,240,232)" fill-opacity="1" letter-spacing="0.3px">FF</text><text x="72" y="39.888000831604" font-size="15" font-weight="700" font-family="Inter, ui-sans-serif, system-ui, sans-serif" fill="rgb(245,240,232)" fill-opacity="1">FreshFold</text><text x="72" y="56.09600166320801" font-size="11" font-weight="600" font-family="Inter, ui-sans-serif, system-ui, sans-serif" fill="rgb(245,240,232)" fill-opacity="0.6" letter-spacing="0.44px">ADMIN CONSOLE</text><text x="24" y="113.29599929809571" font-size="10.5" font-weight="800" font-family="Inter, ui-sans-serif, system-ui, sans-serif" fill="rgb(245,240,232)" fill-opacity="0.5" letter-spacing="0.84px">OPERATIONS</text><g clip-path="url(#clip1)"><svg x="24" y="135.60000610351562" width="17" height="17" viewBox="0 0 24 24" fill="none" stroke="rgba(245, 240, 232, 0.82)" stroke-width="2" stroke-linecap="butt" stroke-linejoin="miter"><rect x="3" y="3" width="7" height="9" rx="1.5"></rect><rect x="14" y="3" width="7" height="5" rx="1.5"></rect><rect x="14" y="12" width="7" height="9" rx="1.5"></rect><rect x="3" y="16" width="7" height="5" rx="1.5"></rect></svg></g><text x="53" y="149.22000610351563" font-size="13.5" font-weight="600" font-family="Inter, ui-sans-serif, system-ui, sans-serif" fill="rgb(245,240,232)" fill-opacity="0.82">Dashboard</text><g clip-path="url(#clip2)"><svg x="24" y="174.60000610351562" width="17" height="17" viewBox="0 0 24 24" fill="none" stroke="rgba(245, 240, 232, 0.82)" stroke-width="2" stroke-linecap="butt" stroke-linejoin="miter"><path d="M4 4h16v16H4z"></path><path d="M8 9h8M8 13h8M8 17h4"></path></svg></g><text x="53" y="188.22000610351563" font-size="13.5" font-weight="600" font-family="Inter, ui-sans-serif, system-ui, sans-serif" fill="rgb(245,240,232)" fill-opacity="0.82">Orders</text><g clip-path="url(#clip3)"><svg x="24" y="213.60000610351562" width="17" height="17" viewBox="0 0 24 24" fill="none" stroke="rgba(245, 240, 232, 0.82)" stroke-width="2" stroke-linecap="butt" stroke-linejoin="miter"><circle cx="9" cy="8" r="3.2"></circle><path d="M2.5 20c0-3.6 2.9-6.2 6.5-6.2s6.5 2.6 6.5 6.2"></path><circle cx="17.5" cy="8.5" r="2.6"></circle><path d="M15.7 13.8c2.7.4 4.8 2.6 4.8 5.9"></path></svg></g><text x="53" y="227.22000610351563" font-size="13.5" font-weight="600" font-family="Inter, ui-sans-serif, system-ui, sans-serif" fill="rgb(245,240,232)" fill-opacity="0.82">Members</text><g clip-path="url(#clip4)"><svg x="226" y="215.10000610351562" width="14" height="14" viewBox="0 0 24 24" fill="none" stroke="rgba(245, 240, 232, 0.82)" stroke-width="2" stroke-linecap="butt" stroke-linejoin="miter"><path d="M6 9l6 6 6-6"></path></svg></g><path d="M 22 242.60000610351562 L 242 242.60000610351562 A 10 10 0 0 1 252 252.60000610351562 L 252 269.6000061035156 A 10 10 0 0 1 242 279.6000061035156 L 22 279.6000061035156 A 10 10 0 0 1 12 269.6000061035156 L 12 252.60000610351562 A 10 10 0 0 1 22 242.60000610351562 Z" fill="rgb(255,255,255)" fill-opacity="0.16" filter="url(#shadow5)"/><g clip-path="url(#clip6)"><svg x="24" y="252.60000610351562" width="17" height="17" viewBox="0 0 24 24" fill="none" stroke="rgb(245, 240, 232)" stroke-width="2" stroke-linecap="butt" stroke-linejoin="miter"><path d="M4 20V10M12 20V4M20 20v-7"></path></svg></g><text x="53" y="266.22000610351563" font-size="13.5" font-weight="600" font-family="Inter, ui-sans-serif, system-ui, sans-serif" fill="rgb(245,240,232)" fill-opacity="1">Reports</text><g clip-path="url(#clip7)"><svg x="24" y="291.6000061035156" width="17" height="17" viewBox="0 0 24 24" fill="none" stroke="rgba(245, 240, 232, 0.82)" stroke-width="2" stroke-linecap="butt" stroke-linejoin="miter"><circle cx="12" cy="12" r="3"></circle><path d="M19.4 15a1.65 1.65 0 00.33 1.82l.06.06a2 2 0 11-2.83 2.83l-.06-.06a1.65 1.65 0 00-1.82-.33 1.65 1.65 0 00-1 1.51V21a2 2 0 01-4 0v-.09a1.65 1.65 0 00-1-1.51 1.65 1.65 0 00-1.82.33l-.06.06a2 2 0 11-2.83-2.83l.06-.06a1.65 1.65 0 00.33-1.82 1.65 1.65 0 00-1.51-1H3a2 2 0 010-4h.09a1.65 1.65 0 001.51-1 1.65 1.65 0 00-.33-1.82l-.06-.06a2 2 0 112.83-2.83l.06.06a1.65 1.65 0 001.82.33H9a1.65 1.65 0 001-1.51V3a2 2 0 014 0v.09a1.65 1.65 0 001 1.51 1.65 1.65 0 001.82-.33l.06-.06a2 2 0 112.83 2.83l-.06.06a1.65 1.65 0 00-.33 1.82V9a1.65 1.65 0 001.51 1H21a2 2 0 010 4h-.09a1.65 1.65 0 00-1.51 1z"></path></svg></g><text x="53" y="305.22000610351563" font-size="13.5" font-weight="600" font-family="Inter, ui-sans-serif, system-ui, sans-serif" fill="rgb(245,240,232)" fill-opacity="0.82">Settings</text><path d="M 0 1356 L 264 1356 L 264 1452.400001525879 L 0 1452.400001525879 L 0 1356 Z" fill="none" stroke="rgb(255,255,255)" stroke-width="0.8" stroke-opacity="0.12"/><path d="M 30 1370.800048828125 L 234 1370.800048828125 A 16 16 0 0 1 250 1386.800048828125 L 250 1422.400047302246 A 16 16 0 0 1 234 1438.400047302246 L 30 1438.400047302246 A 16 16 0 0 1 14 1422.400047302246 L 14 1386.800048828125 A 16 16 0 0 1 30 1370.800048828125 Z" fill="rgb(255,255,255)" fill-opacity="0.08" stroke="rgb(255,255,255)" stroke-width="0.8" stroke-opacity="0.14"/><rect x="14" y="1370.800048828125" width="0.8" height="67.5999984741211" fill="rgb(255,255,255)" fill-opacity="0.14"/><path d="M 47.80000114440918 1385.5999755859375 L 47.80000114440918 1385.5999755859375 A 19 19 0 0 1 66.80000114440918 1404.5999755859375 L 66.80000114440918 1404.5999755859375 A 19 19 0 0 1 47.80000114440918 1423.5999755859375 L 47.80000114440918 1423.5999755859375 A 19 19 0 0 1 28.80000114440918 1404.5999755859375 L 28.80000114440918 1404.5999755859375 A 19 19 0 0 1 47.80000114440918 1385.5999755859375 Z" fill="rgb(255,255,255)" fill-opacity="0.18" stroke="rgb(255,255,255)" stroke-width="0.8" stroke-opacity="0.22"/><rect x="28.80000114440918" y="1385.5999755859375" width="0.8" height="38" fill="rgb(255,255,255)" fill-opacity="0.22"/><text x="42.41250228881836" y="1409.9760131835938" font-size="14" font-weight="800" font-family="Inter, ui-sans-serif, system-ui, sans-serif" fill="rgb(245,240,232)" fill-opacity="1">A</text><g clip-path="url(#clip8)"><text x="77.80000305175781" y="1403.0640356445313" font-size="12.5" font-weight="700" font-family="Inter, ui-sans-serif, system-ui, sans-serif" fill="rgb(245,240,232)" fill-opacity="1">Site Administrator</text></g><g clip-path="url(#clip9)"><text x="77.80000305175781" y="1416.2959887695313" font-size="10.5" font-weight="400" font-family="Inter, ui-sans-serif, system-ui, sans-serif" fill="rgb(245,240,232)" fill-opacity="0.6">admin@gmail.com</text></g><path d="M 182.4499969482422 1390.4000244140625 L 226.1999969482422 1390.4000244140625 A 9 9 0 0 1 235.1999969482422 1399.4000244140625 L 235.1999969482422 1409.8000240325928 A 9 9 0 0 1 226.1999969482422 1418.8000240325928 L 182.4499969482422 1418.8000240325928 A 9 9 0 0 1 173.4499969482422 1409.8000240325928 L 173.4499969482422 1399.4000244140625 A 9 9 0 0 1 182.4499969482422 1390.4000244140625 Z" fill="none" stroke="rgb(255,255,255)" stroke-width="0.8" stroke-opacity="0.2"/><rect x="173.4499969482422" y="1390.4000244140625" width="0.8" height="28.399999618530273" fill="rgb(255,255,255)" fill-opacity="0.2"/><text x="184.25" y="1408.6960131835938" font-size="11" font-weight="700" font-family="Inter, ui-sans-serif, system-ui, sans-serif" fill="rgb(245,240,232)" fill-opacity="1">Log out</text><path d="M 264 0 L 1520.800048828125 0 L 1520.800048828125 62.79999923706055 L 264 62.79999923706055 L 264 0 Z" fill="rgb(245,240,232)" fill-opacity="0.92"/><g clip-path="url(#clip10)"><svg x="303" y="24" width="14" height="14" viewBox="0 0 16 16" fill="none" stroke="none" stroke-width="1px" stroke-linecap="butt" stroke-linejoin="miter"><circle cx="6.5" cy="6.5" r="5" stroke="#8a8378" stroke-width="1.5"></circle><path d="M10.5 10.5l3.5 3.5" stroke="#8a8378" stroke-width="1.5" stroke-linecap="round"></path></svg></g><path d="M 300 12 L 600 12 A 10 10 0 0 1 610 22 L 610 40 A 10 10 0 0 1 600 50 L 300 50 A 10 10 0 0 1 290 40 L 290 22 A 10 10 0 0 1 300 12 Z" fill="rgb(255,255,255)" fill-opacity="1" stroke="rgb(237,231,217)" stroke-width="0.8" stroke-opacity="1" filter="url(#shadow11)"/><rect x="290" y="12" width="0.8" height="38" fill="rgb(237,231,217)" fill-opacity="1"/><text x="328" y="36.32" font-size="13.5" font-weight="400" font-family="Inter, ui-sans-serif, system-ui, sans-serif" fill="#9AA5A3" fill-opacity="1">Search orders, vendors, drivers…</text><path d="M 1273.6875734329224 17.200000762939453 L 1385.0000791549683 17.200000762939453 A 13.800000190734863 13.800000190734863 0 0 1 1398.8000793457031 31.000000953674316 L 1398.8000793457031 31.000000953674316 A 13.800000190734863 13.800000190734863 0 0 1 1385.0000791549683 44.80000114440918 L 1273.6875734329224 44.80000114440918 A 13.800000190734863 13.800000190734863 0 0 1 1259.8875732421875 31.000000953674316 L 1259.8875732421875 31.000000953674316 A 13.800000190734863 13.800000190734863 0 0 1 1273.6875734329224 17.200000762939453 Z" fill="rgb(232,242,241)" fill-opacity="1"/><path d="M 1275.3875732421875 27.5 L 1275.3875732421875 27.5 A 3.5 3.5 0 0 1 1278.8875732421875 31 L 1278.8875732421875 31 A 3.5 3.5 0 0 1 1275.3875732421875 34.5 L 1275.3875732421875 34.5 A 3.5 3.5 0 0 1 1271.8875732421875 31 L 1271.8875732421875 31 A 3.5 3.5 0 0 1 1275.3875732421875 27.5 Z" fill="rgb(26,92,88)" fill-opacity="1"/><text x="1285.8875732421875" y="35.35199951171875" font-size="11.5" font-weight="800" font-family="Inter, ui-sans-serif, system-ui, sans-serif" fill="rgb(26,92,88)" fill-opacity="1">19 drivers moving</text><path d="M 1427.800048828125 12 L 1427.800048828125 12 A 19 19 0 0 1 1446.800048828125 31 L 1446.800048828125 31 A 19 19 0 0 1 1427.800048828125 50 L 1427.800048828125 50 A 19 19 0 0 1 1408.800048828125 31 L 1408.800048828125 31 A 19 19 0 0 1 1427.800048828125 12 Z" fill="rgb(255,255,255)" fill-opacity="1" stroke="rgb(237,231,217)" stroke-width="0.8" stroke-opacity="1"/><rect x="1408.800048828125" y="12" width="0.8" height="38" fill="rgb(237,231,217)" fill-opacity="1"/><g clip-path="url(#clip12)"><svg x="1419.800048828125" y="23" width="16" height="16" viewBox="0 0 24 24" fill="none" stroke="rgb(44, 62, 80)" stroke-width="2" stroke-linecap="butt" stroke-linejoin="miter"><path d="M18 8a6 6 0 10-12 0c0 7-3 9-3 9h18s-3-2-3-9"></path><path d="M13.7 21a2 2 0 01-3.4 0"></path></svg></g><path d="M 1441 9.800000190734863 L 1441 9.800000190734863 A 8 8 0 0 1 1449 17.800000190734863 L 1449 17.800000190734863 A 8 8 0 0 1 1441 25.800000190734863 L 1441 25.800000190734863 A 8 8 0 0 1 1433 17.800000190734863 L 1433 17.800000190734863 A 8 8 0 0 1 1441 9.800000190734863 Z" fill="rgb(192,85,63)" fill-opacity="1"/><text x="1437.7125244140625" y="21.640000972747803" font-size="10" font-weight="800" font-family="Inter, ui-sans-serif, system-ui, sans-serif" fill="rgb(255,255,255)" fill-opacity="1">3</text><path d="M 1475.800048828125 12 L 1475.800048828125 12 A 19 19 0 0 1 1494.800048828125 31 L 1494.800048828125 31 A 19 19 0 0 1 1475.800048828125 50 L 1475.800048828125 50 A 19 19 0 0 1 1456.800048828125 31 L 1456.800048828125 31 A 19 19 0 0 1 1475.800048828125 12 Z" fill="rgb(26,92,88)" fill-opacity="1" stroke="rgb(237,231,217)" stroke-width="0.8" stroke-opacity="1"/><rect x="1456.800048828125" y="12" width="0.8" height="38" fill="rgb(237,231,217)" fill-opacity="1"/><text x="1470.7874755859375" y="36.12" font-size="13" font-weight="800" font-family="Inter, ui-sans-serif, system-ui, sans-serif" fill="rgb(245,240,232)" fill-opacity="1">A</text><text x="796.4000244140625" y="128.3840005493164" font-size="26" font-weight="700" font-family="Inter, ui-sans-serif, system-ui, sans-serif" fill="rgb(44,62,80)" fill-opacity="1">Reports Center</text><g clip-path="url(#clip13)"><svg x="697.4000244140625" y="163.5" width="15" height="15" viewBox="0 0 16 16" fill="none" stroke="none" stroke-width="1px" stroke-linecap="butt" stroke-linejoin="miter"><circle cx="6.5" cy="6.5" r="5" stroke="#8a8378" stroke-width="1.5"></circle><path d="M10.5 10.5l3.5 3.5" stroke="#8a8378" stroke-width="1.5" stroke-linecap="round"></path></svg></g><path d="M 692.4000244140625 150 L 1092.4000244140625 150 A 10 10 0 0 1 1102.4000244140625 160 L 1102.4000244140625 182 A 10 10 0 0 1 1092.4000244140625 192 L 692.4000244140625 192 A 10 10 0 0 1 682.4000244140625 182 L 682.4000244140625 160 A 10 10 0 0 1 692.4000244140625 150 Z" fill="rgb(255,255,255)" fill-opacity="1" stroke="rgb(237,231,217)" stroke-width="0.8" stroke-opacity="1" filter="url(#shadow14)"/><rect x="682.4000244140625" y="150" width="0.8" height="42" fill="rgb(237,231,217)" fill-opacity="1"/><text x="722.4000244140625" y="176.88" font-size="13.5" font-weight="400" font-family="Inter, ui-sans-serif, system-ui, sans-serif" fill="#9AA5A3" fill-opacity="1">Search reports…</text><path d="M 384.3999938964844 216 L 1400.3999938964844 216 A 16 16 0 0 1 1416.3999938964844 232 L 1416.3999938964844 1396.4000244140625 A 16 16 0 0 1 1400.3999938964844 1412.4000244140625 L 384.3999938964844 1412.4000244140625 A 16 16 0 0 1 368.3999938964844 1396.4000244140625 L 368.3999938964844 232 A 16 16 0 0 1 384.3999938964844 216 Z" fill="rgb(255,255,255)" fill-opacity="1" stroke="rgb(237,231,217)" stroke-width="0.8" stroke-opacity="1" filter="url(#shadow15)"/><rect x="368.3999938964844" y="216" width="0.8" height="1196.4000244140625" fill="rgb(237,231,217)" fill-opacity="1"/><text x="431.20001220703125" y="263.88801055908203" font-size="15" font-weight="700" font-family="Inter, ui-sans-serif, system-ui, sans-serif" fill="rgb(44,62,80)" fill-opacity="1">Operations</text><g clip-path="url(#clip16)"><svg x="405.20001220703125" y="249.5" width="17" height="17" viewBox="0 0 24 24" fill="none" stroke="rgb(26, 92, 88)" stroke-width="2" stroke-linecap="butt" stroke-linejoin="miter"><path d="M9 3H5a2 2 0 00-2 2v4M15 3h4a2 2 0 012 2v4M9 21H5a2 2 0 01-2-2v-4M15 21h4a2 2 0 002-2v-4"></path><circle cx="12" cy="12" r="3"></circle></svg></g><text x="409.20001220703125" y="304.32001220703125" font-size="13.5" font-weight="600" font-family="Inter, ui-sans-serif, system-ui, sans-serif" fill="rgb(26,92,88)" fill-opacity="1">Vendor Load Report</text><text x="908.4000244140625" y="304.32001220703125" font-size="13.5" font-weight="600" font-family="Inter, ui-sans-serif, system-ui, sans-serif" fill="rgb(154,165,163)" fill-opacity="1">Driver Assignment Report</text><text x="409.20001220703125" y="345.12" font-size="13.5" font-weight="600" font-family="Inter, ui-sans-serif, system-ui, sans-serif" fill="rgb(154,165,163)" fill-opacity="1">Peak Hours Report</text><text x="431.20001220703125" y="403.88801330566406" font-size="15" font-weight="700" font-family="Inter, ui-sans-serif, system-ui, sans-serif" fill="rgb(44,62,80)" fill-opacity="1">Orders</text><g clip-path="url(#clip17)"><svg x="405.20001220703125" y="389.5" width="17" height="17" viewBox="0 0 24 24" fill="none" stroke="rgb(26, 92, 88)" stroke-width="2" stroke-linecap="butt" stroke-linejoin="miter"><path d="M4 4h16v16H4z"></path><path d="M8 9h8M8 13h8M8 17h4"></path></svg></g><text x="409.20001220703125" y="444.32001220703125" font-size="13.5" font-weight="600" font-family="Inter, ui-sans-serif, system-ui, sans-serif" fill="rgb(154,165,163)" fill-opacity="1">Order Status Breakdown</text><text x="908.4000244140625" y="444.32001220703125" font-size="13.5" font-weight="600" font-family="Inter, ui-sans-serif, system-ui, sans-serif" fill="rgb(154,165,163)" fill-opacity="1">Order History</text><text x="409.20001220703125" y="485.12" font-size="13.5" font-weight="600" font-family="Inter, ui-sans-serif, system-ui, sans-serif" fill="rgb(154,165,163)" fill-opacity="1">Unassigned Orders</text><text x="908.4000244140625" y="485.12" font-size="13.5" font-weight="600" font-family="Inter, ui-sans-serif, system-ui, sans-serif" fill="rgb(154,165,163)" fill-opacity="1">Cancelled Orders</text><text x="409.20001220703125" y="525.9199877929688" font-size="13.5" font-weight="600" font-family="Inter, ui-sans-serif, system-ui, sans-serif" fill="rgb(154,165,163)" fill-opacity="1">Turnaround Time</text><text x="908.4000244140625" y="525.9199877929688" font-size="13.5" font-weight="600" font-family="Inter, ui-sans-serif, system-ui, sans-serif" fill="rgb(154,165,163)" fill-opacity="1">Repeat Orders</text><text x="431.20001220703125" y="584.6880065917969" font-size="15" font-weight="700" font-family="Inter, ui-sans-serif, system-ui, sans-serif" fill="rgb(44,62,80)" fill-opacity="1">Payments &amp; Refunds</text><g clip-path="url(#clip18)"><svg x="405.20001220703125" y="570.2999877929688" width="17" height="17" viewBox="0 0 24 24" fill="none" stroke="rgb(26, 92, 88)" stroke-width="2" stroke-linecap="butt" stroke-linejoin="miter"><rect x="2" y="6" width="20" height="12" rx="2"></rect><circle cx="12" cy="12" r="2.6"></circle><path d="M6 10v.01M18 14v.01"></path></svg></g><text x="409.20001220703125" y="625.12" font-size="13.5" font-weight="600" font-family="Inter, ui-sans-serif, system-ui, sans-serif" fill="rgb(154,165,163)" fill-opacity="1">Revenue Summary</text><text x="908.4000244140625" y="625.12" font-size="13.5" font-weight="600" font-family="Inter, ui-sans-serif, system-ui, sans-serif" fill="rgb(154,165,163)" fill-opacity="1">Refund History</text><text x="409.20001220703125" y="665.9199877929688" font-size="13.5" font-weight="600" font-family="Inter, ui-sans-serif, system-ui, sans-serif" fill="rgb(154,165,163)" fill-opacity="1">Outstanding Balances</text><text x="431.20001220703125" y="724.6880065917969" font-size="15" font-weight="700" font-family="Inter, ui-sans-serif, system-ui, sans-serif" fill="rgb(44,62,80)" fill-opacity="1">Recurring Pickups</text><g clip-path="url(#clip19)"><svg x="405.20001220703125" y="710.2999877929688" width="17" height="17" viewBox="0 0 24 24" fill="none" stroke="rgb(26, 92, 88)" stroke-width="2" stroke-linecap="butt" stroke-linejoin="miter"><path d="M21 12a9 9 0 11-3-6.7"></path><path d="M21 3v6h-6"></path></svg></g><text x="409.20001220703125" y="765.12" font-size="13.5" font-weight="600" font-family="Inter, ui-sans-serif, system-ui, sans-serif" fill="rgb(154,165,163)" fill-opacity="1">Recurring Pickup Schedule</text><text x="431.20001220703125" y="823.8880078125" font-size="15" font-weight="700" font-family="Inter, ui-sans-serif, system-ui, sans-serif" fill="rgb(44,62,80)" fill-opacity="1">Vendor Payouts</text><g clip-path="url(#clip20)"><svg x="405.20001220703125" y="809.5" width="17" height="17" viewBox="0 0 24 24" fill="none" stroke="rgb(26, 92, 88)" stroke-width="2" stroke-linecap="butt" stroke-linejoin="miter"><path d="M3 9l1.5-5h15L21 9"></path><path d="M3 9h18v11H3z"></path><path d="M9 20v-6h6v6"></path></svg></g><text x="409.20001220703125" y="864.3200122070313" font-size="13.5" font-weight="600" font-family="Inter, ui-sans-serif, system-ui, sans-serif" fill="rgb(154,165,163)" fill-opacity="1">Payout Summary</text><text x="908.4000244140625" y="864.3200122070313" font-size="13.5" font-weight="600" font-family="Inter, ui-sans-serif, system-ui, sans-serif" fill="rgb(154,165,163)" fill-opacity="1">Payouts by Vendor</text><text x="409.20001220703125" y="905.12" font-size="13.5" font-weight="600" font-family="Inter, ui-sans-serif, system-ui, sans-serif" fill="rgb(154,165,163)" fill-opacity="1">Vendor Commission</text><text x="908.4000244140625" y="905.12" font-size="13.5" font-weight="600" font-family="Inter, ui-sans-serif, system-ui, sans-serif" fill="rgb(154,165,163)" fill-opacity="1">Vendor Onboarding</text><text x="409.20001220703125" y="945.9199877929688" font-size="13.5" font-weight="600" font-family="Inter, ui-sans-serif, system-ui, sans-serif" fill="rgb(154,165,163)" fill-opacity="1">Vendor Compliance</text><text x="431.20001220703125" y="1004.6880065917969" font-size="15" font-weight="700" font-family="Inter, ui-sans-serif, system-ui, sans-serif" fill="rgb(44,62,80)" fill-opacity="1">Taxes</text><g clip-path="url(#clip21)"><svg x="405.20001220703125" y="990.2999877929688" width="17" height="17" viewBox="0 0 24 24" fill="none" stroke="rgb(26, 92, 88)" stroke-width="2" stroke-linecap="butt" stroke-linejoin="miter"><path d="M4 20V10M12 20V4M20 20v-7"></path></svg></g><text x="409.20001220703125" y="1045.12" font-size="13.5" font-weight="600" font-family="Inter, ui-sans-serif, system-ui, sans-serif" fill="rgb(154,165,163)" fill-opacity="1">Tax Summary</text><text x="431.20001220703125" y="1103.8880688476563" font-size="15" font-weight="700" font-family="Inter, ui-sans-serif, system-ui, sans-serif" fill="rgb(44,62,80)" fill-opacity="1">Drivers &amp; Time Tracking</text><g clip-path="url(#clip22)"><svg x="405.20001220703125" y="1089.5" width="17" height="17" viewBox="0 0 24 24" fill="none" stroke="rgb(26, 92, 88)" stroke-width="2" stroke-linecap="butt" stroke-linejoin="miter"><rect x="1" y="6" width="14" height="10" rx="1"></rect><path d="M15 10h4l3 3v3h-7z"></path><circle cx="6" cy="18" r="1.6"></circle><circle cx="17.5" cy="18" r="1.6"></circle></svg></g><text x="409.20001220703125" y="1144.3200732421874" font-size="13.5" font-weight="600" font-family="Inter, ui-sans-serif, system-ui, sans-serif" fill="rgb(154,165,163)" fill-opacity="1">Driver Performance</text><text x="908.4000244140625" y="1144.3200732421874" font-size="13.5" font-weight="600" font-family="Inter, ui-sans-serif, system-ui, sans-serif" fill="rgb(154,165,163)" fill-opacity="1">Delivery Times</text><text x="409.20001220703125" y="1185.12" font-size="13.5" font-weight="600" font-family="Inter, ui-sans-serif, system-ui, sans-serif" fill="rgb(154,165,163)" fill-opacity="1">Route Efficiency</text><text x="908.4000244140625" y="1185.12" font-size="13.5" font-weight="600" font-family="Inter, ui-sans-serif, system-ui, sans-serif" fill="rgb(154,165,163)" fill-opacity="1">Driver Earnings</text><text x="431.20001220703125" y="1243.8880688476563" font-size="15" font-weight="700" font-family="Inter, ui-sans-serif, system-ui, sans-serif" fill="rgb(44,62,80)" fill-opacity="1">Activity</text><g clip-path="url(#clip23)"><svg x="405.20001220703125" y="1229.5" width="17" height="17" viewBox="0 0 24 24" fill="none" stroke="rgb(26, 92, 88)" stroke-width="2" stroke-linecap="butt" stroke-linejoin="miter"><path d="M3 12h4l3 8 4-16 3 8h4"></path></svg></g><text x="409.20001220703125" y="1284.3200732421874" font-size="13.5" font-weight="600" font-family="Inter, ui-sans-serif, system-ui, sans-serif" fill="rgb(154,165,163)" fill-opacity="1">Activity Logs</text><text x="908.4000244140625" y="1284.3200732421874" font-size="13.5" font-weight="600" font-family="Inter, ui-sans-serif, system-ui, sans-serif" fill="rgb(154,165,163)" fill-opacity="1">Alerts History</text><text x="409.20001220703125" y="1325.12" font-size="13.5" font-weight="600" font-family="Inter, ui-sans-serif, system-ui, sans-serif" fill="rgb(154,165,163)" fill-opacity="1">System Mails</text><text x="908.4000244140625" y="1325.12" font-size="13.5" font-weight="600" font-family="Inter, ui-sans-serif, system-ui, sans-serif" fill="rgb(154,165,163)" fill-opacity="1">Exception Report</text><text x="409.20001220703125" y="1365.920048828125" font-size="13.5" font-weight="600" font-family="Inter, ui-sans-serif, system-ui, sans-serif" fill="rgb(154,165,163)" fill-opacity="1">Client Reviews</text></svg>